<svg xmlns="http://www.w3.org/2000/svg" viewBox="0 0 148 537" width="148" height="537" role="img" aria-label="back-button layout wireframe">
  <title>back-button — layout wireframe (slots + tokens)</title>
  <rect width="148" height="537" fill="#ffffff"/>
  <g>
    <rect x="0" y="0" width="148" height="537" fill="none" fill-opacity="0" stroke="#5B6470" stroke-width="1" stroke-opacity="0.5"/>
  </g>
  <g>
    <rect x="0" y="0" width="148" height="537" fill="none" fill-opacity="0" stroke="#2E7D6B" stroke-width="1" stroke-opacity="0.5"/>
  </g>
  <g>
    <rect x="11" y="11" width="126" height="515" fill="#888888" fill-opacity="1" stroke="#8E6BA8" stroke-width="1.5" stroke-opacity="1"/>
    <text x="14" y="23" font-family="system-ui, sans-serif" font-size="9" fill="#8E6BA8">#FF888888  pad 4.0dp</text>
  </g>
  <g>
    <rect x="11" y="11" width="126" height="515" fill="none" fill-opacity="0" stroke="#B0813B" stroke-width="1" stroke-opacity="0.5"/>
  </g>
  <g>
    <rect x="11" y="11" width="126" height="252" fill="#FFFFFF" fill-opacity="1" stroke="#3B72A8" stroke-width="1.5" stroke-opacity="1"/>
    <text x="14" y="23" font-family="system-ui, sans-serif" font-size="9" fill="#3B72A8">#FFFFFFFF</text>
  </g>
  <g>
    <rect x="11" y="11" width="126" height="252" fill="none" fill-opacity="0" stroke="#A85B6B" stroke-width="1" stroke-opacity="0.5"/>
  </g>
  <g>
    <path d="M74.5,22 H74.5 A52.5,52.5 0 0 1 127,74.5 V74.5 A52.5,52.5 0 0 1 74.5,127 H74.5 A52.5,52.5 0 0 1 22,74.5 V74.5 A52.5,52.5 0 0 1 74.5,22 Z" fill="none" fill-opacity="0" stroke="#4F8A4A" stroke-width="1.5" stroke-opacity="1"/>
  </g>
  <g>
    <rect x="43" y="43" width="63" height="63" fill="none" fill-opacity="0" stroke="#7A7A33" stroke-width="1" stroke-opacity="0.5"/>
  </g>
  <g>
    <path d="M74.5,148 H74.5 A52.5,52.5 0 0 1 127,200.5 V200.5 A52.5,52.5 0 0 1 74.5,253 H74.5 A52.5,52.5 0 0 1 22,200.5 V200.5 A52.5,52.5 0 0 1 74.5,148 Z" fill="none" fill-opacity="0" stroke="#4F8A4A" stroke-width="1.5" stroke-opacity="1"/>
  </g>
  <g>
    <rect x="43" y="169" width="63" height="63" fill="none" fill-opacity="0" stroke="#7A7A33" stroke-width="1" stroke-opacity="0.5"/>
  </g>
  <g>
    <rect x="11" y="274" width="126" height="252" fill="#101317" fill-opacity="1" stroke="#3B72A8" stroke-width="1.5" stroke-opacity="1"/>
    <text x="14" y="286" font-family="system-ui, sans-serif" font-size="9" fill="#3B72A8">#FF101317</text>
  </g>
  <g>
    <rect x="11" y="274" width="126" height="252" fill="none" fill-opacity="0" stroke="#A85B6B" stroke-width="1" stroke-opacity="0.5"/>
  </g>
  <g>
    <path d="M74.5,285 H74.5 A52.5,52.5 0 0 1 127,337.5 V337.5 A52.5,52.5 0 0 1 74.5,390 H74.5 A52.5,52.5 0 0 1 22,337.5 V337.5 A52.5,52.5 0 0 1 74.5,285 Z" fill="none" fill-opacity="0" stroke="#4F8A4A" stroke-width="1.5" stroke-opacity="1"/>
  </g>
  <g>
    <rect x="43" y="306" width="63" height="63" fill="none" fill-opacity="0" stroke="#7A7A33" stroke-width="1" stroke-opacity="0.5"/>
  </g>
  <g>
    <path d="M74.5,411 H74.5 A52.5,52.5 0 0 1 127,463.5 V463.5 A52.5,52.5 0 0 1 74.5,516 H74.5 A52.5,52.5 0 0 1 22,463.5 V463.5 A52.5,52.5 0 0 1 74.5,411 Z" fill="none" fill-opacity="0" stroke="#4F8A4A" stroke-width="1.5" stroke-opacity="1"/>
  </g>
  <g>
    <rect x="43" y="432" width="63" height="63" fill="none" fill-opacity="0" stroke="#7A7A33" stroke-width="1" stroke-opacity="0.5"/>
  </g>
</svg>
