<svg xmlns="http://www.w3.org/2000/svg" viewBox="0 0 1050 864" width="1050" height="864" role="img" aria-label="checkbox-input-with-error layout wireframe">
  <title>checkbox-input-with-error — layout wireframe (slots + tokens)</title>
  <rect width="1050" height="864" fill="#ffffff"/>
  <g>
    <rect x="0" y="0" width="1050" height="864" fill="none" fill-opacity="0" stroke="#5B6470" stroke-width="1" stroke-opacity="0.5"/>
  </g>
  <g>
    <rect x="0" y="0" width="1050" height="864" fill="none" fill-opacity="0" stroke="#2E7D6B" stroke-width="1" stroke-opacity="0.5"/>
  </g>
  <g>
    <rect x="0" y="0" width="1050" height="864" fill="none" fill-opacity="0" stroke="#8E6BA8" stroke-width="1" stroke-opacity="0.5"/>
  </g>
  <g>
    <rect x="0" y="0" width="1050" height="216" fill="#FCF8F8" fill-opacity="1" stroke="#B0813B" stroke-width="1.5" stroke-opacity="1"/>
    <text x="3" y="12" font-family="system-ui, sans-serif" font-size="9" fill="#B0813B">#FFFCF8F8</text>
  </g>
  <g>
    <rect x="0" y="0" width="1050" height="216" fill="none" fill-opacity="0" stroke="#3B72A8" stroke-width="1" stroke-opacity="0.5"/>
  </g>
  <g>
    <rect x="0" y="0" width="105" height="63" fill="#5F303D" fill-opacity="1" stroke="#A85B6B" stroke-width="1.5" stroke-opacity="1"/>
    <text x="3" y="12" font-family="system-ui, sans-serif" font-size="9" fill="#A85B6B">#FF5F303D</text>
  </g>
  <g>
    <rect x="11" y="0" width="83" height="63" fill="none" fill-opacity="0" stroke="#4F8A4A" stroke-width="1" stroke-opacity="0.5"/>
  </g>
  <g>
    <rect x="42" y="84" width="966" height="111" fill="none" fill-opacity="0" stroke="#A85B6B" stroke-width="1" stroke-opacity="0.5"/>
  </g>
  <g>
    <rect x="42" y="84" width="966" height="63" fill="none" fill-opacity="0" stroke="#4F8A4A" stroke-width="1" stroke-opacity="0.5"/>
  </g>
  <g>
    <rect x="47" y="89" width="53" height="53" fill="none" fill-opacity="0" stroke="#7A7A33" stroke-width="1" stroke-opacity="0.5"/>
  </g>
  <g>
    <rect x="116" y="91" width="296" height="49" fill="none" fill-opacity="0" stroke="#7A7A33" stroke-width="1" stroke-opacity="0.5"/>
  </g>
  <g>
    <rect x="42" y="147" width="258" height="48" fill="none" fill-opacity="0" stroke="#4F8A4A" stroke-width="1" stroke-opacity="0.5"/>
  </g>
  <g>
    <rect x="42" y="147" width="258" height="48" fill="none" fill-opacity="0" stroke="#7A7A33" stroke-width="1" stroke-opacity="0.5"/>
  </g>
  <g>
    <rect x="84" y="158" width="216" height="37" fill="none" fill-opacity="0" stroke="#5B6470" stroke-width="1" stroke-opacity="0.5"/>
  </g>
  <g>
    <rect x="0" y="216" width="1050" height="216" fill="#131314" fill-opacity="1" stroke="#B0813B" stroke-width="1.5" stroke-opacity="1"/>
    <text x="3" y="228" font-family="system-ui, sans-serif" font-size="9" fill="#B0813B">#FF131314</text>
  </g>
  <g>
    <rect x="0" y="216" width="1050" height="216" fill="none" fill-opacity="0" stroke="#3B72A8" stroke-width="1" stroke-opacity="0.5"/>
  </g>
  <g>
    <rect x="0" y="216" width="102" height="63" fill="#F1E7FF" fill-opacity="1" stroke="#A85B6B" stroke-width="1.5" stroke-opacity="1"/>
    <text x="3" y="228" font-family="system-ui, sans-serif" font-size="9" fill="#A85B6B">#FFF1E7FF</text>
  </g>
  <g>
    <rect x="11" y="216" width="80" height="63" fill="none" fill-opacity="0" stroke="#4F8A4A" stroke-width="1" stroke-opacity="0.5"/>
  </g>
  <g>
    <rect x="42" y="300" width="966" height="111" fill="none" fill-opacity="0" stroke="#A85B6B" stroke-width="1" stroke-opacity="0.5"/>
  </g>
  <g>
    <rect x="42" y="300" width="966" height="63" fill="none" fill-opacity="0" stroke="#4F8A4A" stroke-width="1" stroke-opacity="0.5"/>
  </g>
  <g>
    <rect x="47" y="305" width="53" height="53" fill="none" fill-opacity="0" stroke="#7A7A33" stroke-width="1" stroke-opacity="0.5"/>
  </g>
  <g>
    <rect x="116" y="307" width="296" height="49" fill="none" fill-opacity="0" stroke="#7A7A33" stroke-width="1" stroke-opacity="0.5"/>
  </g>
  <g>
    <rect x="42" y="363" width="258" height="48" fill="none" fill-opacity="0" stroke="#4F8A4A" stroke-width="1" stroke-opacity="0.5"/>
  </g>
  <g>
    <rect x="42" y="363" width="258" height="48" fill="none" fill-opacity="0" stroke="#7A7A33" stroke-width="1" stroke-opacity="0.5"/>
  </g>
  <g>
    <rect x="84" y="374" width="216" height="37" fill="none" fill-opacity="0" stroke="#5B6470" stroke-width="1" stroke-opacity="0.5"/>
  </g>
  <g>
    <rect x="0" y="432" width="1050" height="216" fill="#FCF8F8" fill-opacity="1" stroke="#B0813B" stroke-width="1.5" stroke-opacity="1"/>
    <text x="3" y="444" font-family="system-ui, sans-serif" font-size="9" fill="#B0813B">#FFFCF8F8</text>
  </g>
  <g>
    <rect x="0" y="432" width="1050" height="216" fill="none" fill-opacity="0" stroke="#3B72A8" stroke-width="1" stroke-opacity="0.5"/>
  </g>
  <g>
    <rect x="0" y="432" width="160" height="63" fill="#004F9B" fill-opacity="1" stroke="#A85B6B" stroke-width="1.5" stroke-opacity="1"/>
    <text x="3" y="444" font-family="system-ui, sans-serif" font-size="9" fill="#A85B6B">#FF004F9B</text>
  </g>
  <g>
    <rect x="11" y="432" width="138" height="63" fill="none" fill-opacity="0" stroke="#4F8A4A" stroke-width="1" stroke-opacity="0.5"/>
  </g>
  <g>
    <rect x="42" y="516" width="966" height="111" fill="none" fill-opacity="0" stroke="#A85B6B" stroke-width="1" stroke-opacity="0.5"/>
  </g>
  <g>
    <rect x="42" y="516" width="966" height="63" fill="none" fill-opacity="0" stroke="#4F8A4A" stroke-width="1" stroke-opacity="0.5"/>
  </g>
  <g>
    <rect x="47" y="521" width="53" height="53" fill="none" fill-opacity="0" stroke="#7A7A33" stroke-width="1" stroke-opacity="0.5"/>
  </g>
  <g>
    <rect x="116" y="523" width="296" height="49" fill="none" fill-opacity="0" stroke="#7A7A33" stroke-width="1" stroke-opacity="0.5"/>
  </g>
  <g>
    <rect x="42" y="579" width="258" height="48" fill="none" fill-opacity="0" stroke="#4F8A4A" stroke-width="1" stroke-opacity="0.5"/>
  </g>
  <g>
    <rect x="42" y="579" width="258" height="48" fill="none" fill-opacity="0" stroke="#7A7A33" stroke-width="1" stroke-opacity="0.5"/>
  </g>
  <g>
    <rect x="84" y="590" width="216" height="37" fill="none" fill-opacity="0" stroke="#5B6470" stroke-width="1" stroke-opacity="0.5"/>
  </g>
  <g>
    <rect x="0" y="648" width="1050" height="216" fill="#131314" fill-opacity="1" stroke="#B0813B" stroke-width="1.5" stroke-opacity="1"/>
    <text x="3" y="660" font-family="system-ui, sans-serif" font-size="9" fill="#B0813B">#FF131314</text>
  </g>
  <g>
    <rect x="0" y="648" width="1050" height="216" fill="none" fill-opacity="0" stroke="#3B72A8" stroke-width="1" stroke-opacity="0.5"/>
  </g>
  <g>
    <rect x="0" y="648" width="156" height="63" fill="#BEE6FF" fill-opacity="1" stroke="#A85B6B" stroke-width="1.5" stroke-opacity="1"/>
    <text x="3" y="660" font-family="system-ui, sans-serif" font-size="9" fill="#A85B6B">#FFBEE6FF</text>
  </g>
  <g>
    <rect x="11" y="648" width="134" height="63" fill="none" fill-opacity="0" stroke="#4F8A4A" stroke-width="1" stroke-opacity="0.5"/>
  </g>
  <g>
    <rect x="42" y="732" width="966" height="111" fill="none" fill-opacity="0" stroke="#A85B6B" stroke-width="1" stroke-opacity="0.5"/>
  </g>
  <g>
    <rect x="42" y="732" width="966" height="63" fill="none" fill-opacity="0" stroke="#4F8A4A" stroke-width="1" stroke-opacity="0.5"/>
  </g>
  <g>
    <rect x="47" y="737" width="53" height="53" fill="none" fill-opacity="0" stroke="#7A7A33" stroke-width="1" stroke-opacity="0.5"/>
  </g>
  <g>
    <rect x="116" y="739" width="296" height="49" fill="none" fill-opacity="0" stroke="#7A7A33" stroke-width="1" stroke-opacity="0.5"/>
  </g>
  <g>
    <rect x="42" y="795" width="258" height="48" fill="none" fill-opacity="0" stroke="#4F8A4A" stroke-width="1" stroke-opacity="0.5"/>
  </g>
  <g>
    <rect x="42" y="795" width="258" height="48" fill="none" fill-opacity="0" stroke="#7A7A33" stroke-width="1" stroke-opacity="0.5"/>
  </g>
  <g>
    <rect x="84" y="806" width="216" height="37" fill="none" fill-opacity="0" stroke="#5B6470" stroke-width="1" stroke-opacity="0.5"/>
  </g>
</svg>
