<svg xmlns="http://www.w3.org/2000/svg" viewBox="0 0 1050 1839" width="1050" height="1839" role="img" aria-label="preference-checkbox layout wireframe">
  <title>preference-checkbox — layout wireframe (slots + tokens)</title>
  <rect width="1050" height="1839" fill="#ffffff"/>
  <g>
    <rect x="0" y="0" width="1050" height="1839" fill="none" fill-opacity="0" stroke="#5B6470" stroke-width="1" stroke-opacity="0.5"/>
  </g>
  <g>
    <rect x="0" y="0" width="1050" height="1839" fill="none" fill-opacity="0" stroke="#2E7D6B" stroke-width="1" stroke-opacity="0.5"/>
  </g>
  <g>
    <rect x="11" y="11" width="1028" height="1817" fill="#888888" fill-opacity="1" stroke="#8E6BA8" stroke-width="1.5" stroke-opacity="1"/>
    <text x="14" y="23" font-family="system-ui, sans-serif" font-size="9" fill="#8E6BA8">#FF888888  pad 4.0dp</text>
  </g>
  <g>
    <rect x="11" y="11" width="1028" height="1817" fill="none" fill-opacity="0" stroke="#B0813B" stroke-width="1" stroke-opacity="0.5"/>
  </g>
  <g>
    <rect x="11" y="11" width="1028" height="903" fill="#FFFFFF" fill-opacity="1" stroke="#3B72A8" stroke-width="1.5" stroke-opacity="1"/>
    <text x="14" y="23" font-family="system-ui, sans-serif" font-size="9" fill="#3B72A8">#FFFFFFFF</text>
  </g>
  <g>
    <rect x="11" y="11" width="1028" height="903" fill="none" fill-opacity="0" stroke="#A85B6B" stroke-width="1" stroke-opacity="0.5"/>
  </g>
  <g>
    <path d="M63.5,37 H986.5 A10.5,10.5 0 0 1 997,47.5 V121.5 A10.5,10.5 0 0 1 986.5,132 H63.5 A10.5,10.5 0 0 1 53,121.5 V47.5 A10.5,10.5 0 0 1 63.5,37 Z" fill="none" fill-opacity="0" stroke="#4F8A4A" stroke-width="1.5" stroke-opacity="1"/>
    <text x="56" y="49" font-family="system-ui, sans-serif" font-size="9" fill="#4F8A4A">pad ·</text>
  </g>
  <g>
    <rect x="53" y="53" width="63" height="63" fill="none" fill-opacity="0" stroke="#7A7A33" stroke-width="1" stroke-opacity="0.5"/>
  </g>
  <g>
    <rect x="53" y="53" width="63" height="63" fill="none" fill-opacity="0" stroke="#5B6470" stroke-width="1" stroke-opacity="0.5"/>
  </g>
  <g>
    <rect x="53" y="53" width="63" height="63" fill="none" fill-opacity="0" stroke="#2E7D6B" stroke-width="1" stroke-opacity="0.5"/>
  </g>
  <g>
    <rect x="148" y="56" width="190" height="58" fill="none" fill-opacity="0" stroke="#7A7A33" stroke-width="1" stroke-opacity="0.5"/>
  </g>
  <g>
    <rect x="148" y="56" width="190" height="58" fill="none" fill-opacity="0" stroke="#5B6470" stroke-width="1" stroke-opacity="0.5"/>
  </g>
  <g>
    <rect x="934" y="53" width="63" height="63" fill="none" fill-opacity="0" stroke="#7A7A33" stroke-width="1" stroke-opacity="0.5"/>
  </g>
  <g>
    <rect x="939" y="58" width="53" height="53" fill="none" fill-opacity="0" stroke="#5B6470" stroke-width="1" stroke-opacity="0.5"/>
  </g>
  <g>
    <path d="M63.5,184 H986.5 A10.5,10.5 0 0 1 997,194.5 V310.5 A10.5,10.5 0 0 1 986.5,321 H63.5 A10.5,10.5 0 0 1 53,310.5 V194.5 A10.5,10.5 0 0 1 63.5,184 Z" fill="none" fill-opacity="0" stroke="#4F8A4A" stroke-width="1.5" stroke-opacity="1"/>
    <text x="56" y="196" font-family="system-ui, sans-serif" font-size="9" fill="#4F8A4A">pad ·</text>
  </g>
  <g>
    <rect x="53" y="221" width="63" height="63" fill="none" fill-opacity="0" stroke="#7A7A33" stroke-width="1" stroke-opacity="0.5"/>
  </g>
  <g>
    <rect x="53" y="221" width="63" height="63" fill="none" fill-opacity="0" stroke="#5B6470" stroke-width="1" stroke-opacity="0.5"/>
  </g>
  <g>
    <rect x="53" y="221" width="63" height="63" fill="none" fill-opacity="0" stroke="#2E7D6B" stroke-width="1" stroke-opacity="0.5"/>
  </g>
  <g>
    <rect x="148" y="197" width="586" height="58" fill="none" fill-opacity="0" stroke="#7A7A33" stroke-width="1" stroke-opacity="0.5"/>
  </g>
  <g>
    <rect x="148" y="197" width="586" height="58" fill="none" fill-opacity="0" stroke="#5B6470" stroke-width="1" stroke-opacity="0.5"/>
  </g>
  <g>
    <rect x="148" y="255" width="256" height="53" fill="none" fill-opacity="0" stroke="#7A7A33" stroke-width="1" stroke-opacity="0.5"/>
  </g>
  <g>
    <rect x="148" y="255" width="256" height="53" fill="none" fill-opacity="0" stroke="#5B6470" stroke-width="1" stroke-opacity="0.5"/>
  </g>
  <g>
    <rect x="934" y="221" width="63" height="63" fill="none" fill-opacity="0" stroke="#7A7A33" stroke-width="1" stroke-opacity="0.5"/>
  </g>
  <g>
    <rect x="939" y="226" width="53" height="53" fill="none" fill-opacity="0" stroke="#5B6470" stroke-width="1" stroke-opacity="0.5"/>
  </g>
  <g>
    <path d="M63.5,373 H986.5 A10.5,10.5 0 0 1 997,383.5 V499.5 A10.5,10.5 0 0 1 986.5,510 H63.5 A10.5,10.5 0 0 1 53,499.5 V383.5 A10.5,10.5 0 0 1 63.5,373 Z" fill="none" fill-opacity="0" stroke="#4F8A4A" stroke-width="1.5" stroke-opacity="1"/>
    <text x="56" y="385" font-family="system-ui, sans-serif" font-size="9" fill="#4F8A4A">pad ·</text>
  </g>
  <g>
    <rect x="53" y="410" width="63" height="63" fill="none" fill-opacity="0" stroke="#7A7A33" stroke-width="1" stroke-opacity="0.5"/>
  </g>
  <g>
    <rect x="53" y="410" width="63" height="63" fill="none" fill-opacity="0" stroke="#5B6470" stroke-width="1" stroke-opacity="0.5"/>
  </g>
  <g>
    <rect x="53" y="410" width="63" height="63" fill="none" fill-opacity="0" stroke="#2E7D6B" stroke-width="1" stroke-opacity="0.5"/>
  </g>
  <g>
    <rect x="148" y="386" width="586" height="58" fill="none" fill-opacity="0" stroke="#7A7A33" stroke-width="1" stroke-opacity="0.5"/>
  </g>
  <g>
    <rect x="148" y="386" width="586" height="58" fill="none" fill-opacity="0" stroke="#5B6470" stroke-width="1" stroke-opacity="0.5"/>
  </g>
  <g>
    <rect x="148" y="444" width="256" height="53" fill="none" fill-opacity="0" stroke="#7A7A33" stroke-width="1" stroke-opacity="0.5"/>
  </g>
  <g>
    <rect x="148" y="444" width="256" height="53" fill="none" fill-opacity="0" stroke="#5B6470" stroke-width="1" stroke-opacity="0.5"/>
  </g>
  <g>
    <rect x="934" y="410" width="63" height="63" fill="none" fill-opacity="0" stroke="#7A7A33" stroke-width="1" stroke-opacity="0.5"/>
  </g>
  <g>
    <rect x="939" y="415" width="53" height="53" fill="none" fill-opacity="0" stroke="#5B6470" stroke-width="1" stroke-opacity="0.5"/>
  </g>
  <g>
    <path d="M63.5,562 H986.5 A10.5,10.5 0 0 1 997,572.5 V688.5 A10.5,10.5 0 0 1 986.5,699 H63.5 A10.5,10.5 0 0 1 53,688.5 V572.5 A10.5,10.5 0 0 1 63.5,562 Z" fill="none" fill-opacity="0" stroke="#4F8A4A" stroke-width="1.5" stroke-opacity="1"/>
    <text x="56" y="574" font-family="system-ui, sans-serif" font-size="9" fill="#4F8A4A">pad ·</text>
  </g>
  <g>
    <rect x="148" y="575" width="586" height="58" fill="none" fill-opacity="0" stroke="#7A7A33" stroke-width="1" stroke-opacity="0.5"/>
  </g>
  <g>
    <rect x="148" y="575" width="586" height="58" fill="none" fill-opacity="0" stroke="#5B6470" stroke-width="1" stroke-opacity="0.5"/>
  </g>
  <g>
    <rect x="148" y="633" width="256" height="53" fill="none" fill-opacity="0" stroke="#7A7A33" stroke-width="1" stroke-opacity="0.5"/>
  </g>
  <g>
    <rect x="148" y="633" width="256" height="53" fill="none" fill-opacity="0" stroke="#5B6470" stroke-width="1" stroke-opacity="0.5"/>
  </g>
  <g>
    <rect x="934" y="599" width="63" height="63" fill="none" fill-opacity="0" stroke="#7A7A33" stroke-width="1" stroke-opacity="0.5"/>
  </g>
  <g>
    <rect x="939" y="604" width="53" height="53" fill="none" fill-opacity="0" stroke="#5B6470" stroke-width="1" stroke-opacity="0.5"/>
  </g>
  <g>
    <path d="M63.5,751 H986.5 A10.5,10.5 0 0 1 997,761.5 V877.5 A10.5,10.5 0 0 1 986.5,888 H63.5 A10.5,10.5 0 0 1 53,877.5 V761.5 A10.5,10.5 0 0 1 63.5,751 Z" fill="none" fill-opacity="0" stroke="#4F8A4A" stroke-width="1.5" stroke-opacity="1"/>
    <text x="56" y="763" font-family="system-ui, sans-serif" font-size="9" fill="#4F8A4A">pad ·</text>
  </g>
  <g>
    <rect x="53" y="764" width="586" height="58" fill="none" fill-opacity="0" stroke="#7A7A33" stroke-width="1" stroke-opacity="0.5"/>
  </g>
  <g>
    <rect x="53" y="764" width="586" height="58" fill="none" fill-opacity="0" stroke="#5B6470" stroke-width="1" stroke-opacity="0.5"/>
  </g>
  <g>
    <rect x="53" y="822" width="256" height="53" fill="none" fill-opacity="0" stroke="#7A7A33" stroke-width="1" stroke-opacity="0.5"/>
  </g>
  <g>
    <rect x="53" y="822" width="256" height="53" fill="none" fill-opacity="0" stroke="#5B6470" stroke-width="1" stroke-opacity="0.5"/>
  </g>
  <g>
    <rect x="934" y="788" width="63" height="63" fill="none" fill-opacity="0" stroke="#7A7A33" stroke-width="1" stroke-opacity="0.5"/>
  </g>
  <g>
    <rect x="939" y="793" width="53" height="53" fill="none" fill-opacity="0" stroke="#5B6470" stroke-width="1" stroke-opacity="0.5"/>
  </g>
  <g>
    <rect x="11" y="925" width="1028" height="903" fill="#101317" fill-opacity="1" stroke="#3B72A8" stroke-width="1.5" stroke-opacity="1"/>
    <text x="14" y="937" font-family="system-ui, sans-serif" font-size="9" fill="#3B72A8">#FF101317</text>
  </g>
  <g>
    <rect x="11" y="925" width="1028" height="903" fill="none" fill-opacity="0" stroke="#A85B6B" stroke-width="1" stroke-opacity="0.5"/>
  </g>
  <g>
    <path d="M63.5,951 H986.5 A10.5,10.5 0 0 1 997,961.5 V1035.5 A10.5,10.5 0 0 1 986.5,1046 H63.5 A10.5,10.5 0 0 1 53,1035.5 V961.5 A10.5,10.5 0 0 1 63.5,951 Z" fill="none" fill-opacity="0" stroke="#4F8A4A" stroke-width="1.5" stroke-opacity="1"/>
    <text x="56" y="963" font-family="system-ui, sans-serif" font-size="9" fill="#4F8A4A">pad ·</text>
  </g>
  <g>
    <rect x="53" y="967" width="63" height="63" fill="none" fill-opacity="0" stroke="#7A7A33" stroke-width="1" stroke-opacity="0.5"/>
  </g>
  <g>
    <rect x="53" y="967" width="63" height="63" fill="none" fill-opacity="0" stroke="#5B6470" stroke-width="1" stroke-opacity="0.5"/>
  </g>
  <g>
    <rect x="53" y="967" width="63" height="63" fill="none" fill-opacity="0" stroke="#2E7D6B" stroke-width="1" stroke-opacity="0.5"/>
  </g>
  <g>
    <rect x="148" y="970" width="190" height="58" fill="none" fill-opacity="0" stroke="#7A7A33" stroke-width="1" stroke-opacity="0.5"/>
  </g>
  <g>
    <rect x="148" y="970" width="190" height="58" fill="none" fill-opacity="0" stroke="#5B6470" stroke-width="1" stroke-opacity="0.5"/>
  </g>
  <g>
    <rect x="934" y="967" width="63" height="63" fill="none" fill-opacity="0" stroke="#7A7A33" stroke-width="1" stroke-opacity="0.5"/>
  </g>
  <g>
    <rect x="939" y="972" width="53" height="53" fill="none" fill-opacity="0" stroke="#5B6470" stroke-width="1" stroke-opacity="0.5"/>
  </g>
  <g>
    <path d="M63.5,1098 H986.5 A10.5,10.5 0 0 1 997,1108.5 V1224.5 A10.5,10.5 0 0 1 986.5,1235 H63.5 A10.5,10.5 0 0 1 53,1224.5 V1108.5 A10.5,10.5 0 0 1 63.5,1098 Z" fill="none" fill-opacity="0" stroke="#4F8A4A" stroke-width="1.5" stroke-opacity="1"/>
    <text x="56" y="1110" font-family="system-ui, sans-serif" font-size="9" fill="#4F8A4A">pad ·</text>
  </g>
  <g>
    <rect x="53" y="1135" width="63" height="63" fill="none" fill-opacity="0" stroke="#7A7A33" stroke-width="1" stroke-opacity="0.5"/>
  </g>
  <g>
    <rect x="53" y="1135" width="63" height="63" fill="none" fill-opacity="0" stroke="#5B6470" stroke-width="1" stroke-opacity="0.5"/>
  </g>
  <g>
    <rect x="53" y="1135" width="63" height="63" fill="none" fill-opacity="0" stroke="#2E7D6B" stroke-width="1" stroke-opacity="0.5"/>
  </g>
  <g>
    <rect x="148" y="1111" width="586" height="58" fill="none" fill-opacity="0" stroke="#7A7A33" stroke-width="1" stroke-opacity="0.5"/>
  </g>
  <g>
    <rect x="148" y="1111" width="586" height="58" fill="none" fill-opacity="0" stroke="#5B6470" stroke-width="1" stroke-opacity="0.5"/>
  </g>
  <g>
    <rect x="148" y="1169" width="256" height="53" fill="none" fill-opacity="0" stroke="#7A7A33" stroke-width="1" stroke-opacity="0.5"/>
  </g>
  <g>
    <rect x="148" y="1169" width="256" height="53" fill="none" fill-opacity="0" stroke="#5B6470" stroke-width="1" stroke-opacity="0.5"/>
  </g>
  <g>
    <rect x="934" y="1135" width="63" height="63" fill="none" fill-opacity="0" stroke="#7A7A33" stroke-width="1" stroke-opacity="0.5"/>
  </g>
  <g>
    <rect x="939" y="1140" width="53" height="53" fill="none" fill-opacity="0" stroke="#5B6470" stroke-width="1" stroke-opacity="0.5"/>
  </g>
  <g>
    <path d="M63.5,1287 H986.5 A10.5,10.5 0 0 1 997,1297.5 V1413.5 A10.5,10.5 0 0 1 986.5,1424 H63.5 A10.5,10.5 0 0 1 53,1413.5 V1297.5 A10.5,10.5 0 0 1 63.5,1287 Z" fill="none" fill-opacity="0" stroke="#4F8A4A" stroke-width="1.5" stroke-opacity="1"/>
    <text x="56" y="1299" font-family="system-ui, sans-serif" font-size="9" fill="#4F8A4A">pad ·</text>
  </g>
  <g>
    <rect x="53" y="1324" width="63" height="63" fill="none" fill-opacity="0" stroke="#7A7A33" stroke-width="1" stroke-opacity="0.5"/>
  </g>
  <g>
    <rect x="53" y="1324" width="63" height="63" fill="none" fill-opacity="0" stroke="#5B6470" stroke-width="1" stroke-opacity="0.5"/>
  </g>
  <g>
    <rect x="53" y="1324" width="63" height="63" fill="none" fill-opacity="0" stroke="#2E7D6B" stroke-width="1" stroke-opacity="0.5"/>
  </g>
  <g>
    <rect x="148" y="1300" width="586" height="58" fill="none" fill-opacity="0" stroke="#7A7A33" stroke-width="1" stroke-opacity="0.5"/>
  </g>
  <g>
    <rect x="148" y="1300" width="586" height="58" fill="none" fill-opacity="0" stroke="#5B6470" stroke-width="1" stroke-opacity="0.5"/>
  </g>
  <g>
    <rect x="148" y="1358" width="256" height="53" fill="none" fill-opacity="0" stroke="#7A7A33" stroke-width="1" stroke-opacity="0.5"/>
  </g>
  <g>
    <rect x="148" y="1358" width="256" height="53" fill="none" fill-opacity="0" stroke="#5B6470" stroke-width="1" stroke-opacity="0.5"/>
  </g>
  <g>
    <rect x="934" y="1324" width="63" height="63" fill="none" fill-opacity="0" stroke="#7A7A33" stroke-width="1" stroke-opacity="0.5"/>
  </g>
  <g>
    <rect x="939" y="1329" width="53" height="53" fill="none" fill-opacity="0" stroke="#5B6470" stroke-width="1" stroke-opacity="0.5"/>
  </g>
  <g>
    <path d="M63.5,1476 H986.5 A10.5,10.5 0 0 1 997,1486.5 V1602.5 A10.5,10.5 0 0 1 986.5,1613 H63.5 A10.5,10.5 0 0 1 53,1602.5 V1486.5 A10.5,10.5 0 0 1 63.5,1476 Z" fill="none" fill-opacity="0" stroke="#4F8A4A" stroke-width="1.5" stroke-opacity="1"/>
    <text x="56" y="1488" font-family="system-ui, sans-serif" font-size="9" fill="#4F8A4A">pad ·</text>
  </g>
  <g>
    <rect x="148" y="1489" width="586" height="58" fill="none" fill-opacity="0" stroke="#7A7A33" stroke-width="1" stroke-opacity="0.5"/>
  </g>
  <g>
    <rect x="148" y="1489" width="586" height="58" fill="none" fill-opacity="0" stroke="#5B6470" stroke-width="1" stroke-opacity="0.5"/>
  </g>
  <g>
    <rect x="148" y="1547" width="256" height="53" fill="none" fill-opacity="0" stroke="#7A7A33" stroke-width="1" stroke-opacity="0.5"/>
  </g>
  <g>
    <rect x="148" y="1547" width="256" height="53" fill="none" fill-opacity="0" stroke="#5B6470" stroke-width="1" stroke-opacity="0.5"/>
  </g>
  <g>
    <rect x="934" y="1513" width="63" height="63" fill="none" fill-opacity="0" stroke="#7A7A33" stroke-width="1" stroke-opacity="0.5"/>
  </g>
  <g>
    <rect x="939" y="1518" width="53" height="53" fill="none" fill-opacity="0" stroke="#5B6470" stroke-width="1" stroke-opacity="0.5"/>
  </g>
  <g>
    <path d="M63.5,1665 H986.5 A10.5,10.5 0 0 1 997,1675.5 V1791.5 A10.5,10.5 0 0 1 986.5,1802 H63.5 A10.5,10.5 0 0 1 53,1791.5 V1675.5 A10.5,10.5 0 0 1 63.5,1665 Z" fill="none" fill-opacity="0" stroke="#4F8A4A" stroke-width="1.5" stroke-opacity="1"/>
    <text x="56" y="1677" font-family="system-ui, sans-serif" font-size="9" fill="#4F8A4A">pad ·</text>
  </g>
  <g>
    <rect x="53" y="1678" width="586" height="58" fill="none" fill-opacity="0" stroke="#7A7A33" stroke-width="1" stroke-opacity="0.5"/>
  </g>
  <g>
    <rect x="53" y="1678" width="586" height="58" fill="none" fill-opacity="0" stroke="#5B6470" stroke-width="1" stroke-opacity="0.5"/>
  </g>
  <g>
    <rect x="53" y="1736" width="256" height="53" fill="none" fill-opacity="0" stroke="#7A7A33" stroke-width="1" stroke-opacity="0.5"/>
  </g>
  <g>
    <rect x="53" y="1736" width="256" height="53" fill="none" fill-opacity="0" stroke="#5B6470" stroke-width="1" stroke-opacity="0.5"/>
  </g>
  <g>
    <rect x="934" y="1702" width="63" height="63" fill="none" fill-opacity="0" stroke="#7A7A33" stroke-width="1" stroke-opacity="0.5"/>
  </g>
  <g>
    <rect x="939" y="1707" width="53" height="53" fill="none" fill-opacity="0" stroke="#5B6470" stroke-width="1" stroke-opacity="0.5"/>
  </g>
</svg>
