<svg xmlns="http://www.w3.org/2000/svg" viewBox="0 0 1050 327" width="1050" height="327" role="img" aria-label="preference-row layout wireframe">
  <title>preference-row — layout wireframe (slots + tokens)</title>
  <rect width="1050" height="327" fill="#ffffff"/>
  <g>
    <rect x="0" y="0" width="1050" height="327" fill="none" fill-opacity="0" stroke="#5B6470" stroke-width="1" stroke-opacity="0.5"/>
  </g>
  <g>
    <rect x="0" y="0" width="1050" height="327" fill="none" fill-opacity="0" stroke="#2E7D6B" stroke-width="1" stroke-opacity="0.5"/>
  </g>
  <g>
    <rect x="11" y="11" width="1028" height="305" fill="#888888" fill-opacity="1" stroke="#8E6BA8" stroke-width="1.5" stroke-opacity="1"/>
    <text x="14" y="23" font-family="system-ui, sans-serif" font-size="9" fill="#8E6BA8">#FF888888  pad 4.0dp</text>
  </g>
  <g>
    <rect x="11" y="11" width="1028" height="305" fill="none" fill-opacity="0" stroke="#B0813B" stroke-width="1" stroke-opacity="0.5"/>
  </g>
  <g>
    <rect x="11" y="11" width="1028" height="147" fill="#FFFFFF" fill-opacity="1" stroke="#3B72A8" stroke-width="1.5" stroke-opacity="1"/>
    <text x="14" y="23" font-family="system-ui, sans-serif" font-size="9" fill="#3B72A8">#FFFFFFFF</text>
  </g>
  <g>
    <path d="M63.5,37 H986.5 A10.5,10.5 0 0 1 997,47.5 V121.5 A10.5,10.5 0 0 1 986.5,132 H63.5 A10.5,10.5 0 0 1 53,121.5 V47.5 A10.5,10.5 0 0 1 63.5,37 Z" fill="none" fill-opacity="0" stroke="#A85B6B" stroke-width="1.5" stroke-opacity="1"/>
    <text x="56" y="49" font-family="system-ui, sans-serif" font-size="9" fill="#A85B6B">pad ·</text>
  </g>
  <g>
    <rect x="53" y="56" width="944" height="58" fill="none" fill-opacity="0" stroke="#4F8A4A" stroke-width="1" stroke-opacity="0.5"/>
  </g>
  <g>
    <rect x="53" y="56" width="944" height="58" fill="none" fill-opacity="0" stroke="#7A7A33" stroke-width="1" stroke-opacity="0.5"/>
  </g>
  <g>
    <rect x="53" y="56" width="152" height="58" fill="none" fill-opacity="0" stroke="#5B6470" stroke-width="1" stroke-opacity="0.5"/>
  </g>
  <g>
    <rect x="11" y="169" width="1028" height="147" fill="#101317" fill-opacity="1" stroke="#3B72A8" stroke-width="1.5" stroke-opacity="1"/>
    <text x="14" y="181" font-family="system-ui, sans-serif" font-size="9" fill="#3B72A8">#FF101317</text>
  </g>
  <g>
    <path d="M63.5,195 H986.5 A10.5,10.5 0 0 1 997,205.5 V279.5 A10.5,10.5 0 0 1 986.5,290 H63.5 A10.5,10.5 0 0 1 53,279.5 V205.5 A10.5,10.5 0 0 1 63.5,195 Z" fill="none" fill-opacity="0" stroke="#A85B6B" stroke-width="1.5" stroke-opacity="1"/>
    <text x="56" y="207" font-family="system-ui, sans-serif" font-size="9" fill="#A85B6B">pad ·</text>
  </g>
  <g>
    <rect x="53" y="214" width="944" height="58" fill="none" fill-opacity="0" stroke="#4F8A4A" stroke-width="1" stroke-opacity="0.5"/>
  </g>
  <g>
    <rect x="53" y="214" width="944" height="58" fill="none" fill-opacity="0" stroke="#7A7A33" stroke-width="1" stroke-opacity="0.5"/>
  </g>
  <g>
    <rect x="53" y="214" width="152" height="58" fill="none" fill-opacity="0" stroke="#5B6470" stroke-width="1" stroke-opacity="0.5"/>
  </g>
</svg>
