<svg xmlns="http://www.w3.org/2000/svg" viewBox="0 0 1050 2100" width="1050" height="2100" role="img" aria-label="scaffold-wit-fab layout wireframe">
  <title>scaffold-wit-fab — layout wireframe (slots + tokens)</title>
  <rect width="1050" height="2100" fill="#ffffff"/>
  <g>
    <rect x="0" y="0" width="1050" height="2100" fill="none" fill-opacity="0" stroke="#5B6470" stroke-width="1" stroke-opacity="0.5"/>
  </g>
  <g>
    <rect x="0" y="0" width="1050" height="2100" fill="none" fill-opacity="0" stroke="#2E7D6B" stroke-width="1" stroke-opacity="0.5"/>
  </g>
  <g>
    <rect x="0" y="0" width="1050" height="2100" fill="#FCF8F8" fill-opacity="1" stroke="#8E6BA8" stroke-width="1.5" stroke-opacity="1"/>
    <text x="3" y="12" font-family="system-ui, sans-serif" font-size="9" fill="#8E6BA8">#FFFCF8F8</text>
  </g>
  <g>
    <rect x="0" y="0" width="1050" height="2100" fill="none" fill-opacity="0" stroke="#B0813B" stroke-width="1" stroke-opacity="0.5"/>
  </g>
  <g>
    <rect x="0" y="0" width="1050" height="2100" fill="none" fill-opacity="0" stroke="#3B72A8" stroke-width="1" stroke-opacity="0.5"/>
  </g>
  <g>
    <rect x="0" y="168" width="1050" height="1722" fill="#FCF8F8" fill-opacity="1" stroke="#A85B6B" stroke-width="1.5" stroke-opacity="1"/>
    <text x="3" y="180" font-family="system-ui, sans-serif" font-size="9" fill="#A85B6B">#FFFCF8F8</text>
  </g>
  <g>
    <rect x="0" y="0" width="1050" height="168" fill="none" fill-opacity="0" stroke="#3B72A8" stroke-width="1" stroke-opacity="0.5"/>
  </g>
  <g>
    <rect x="0" y="0" width="1050" height="168" fill="#7F1D1D" fill-opacity="1" stroke="#A85B6B" stroke-width="1.5" stroke-opacity="1"/>
    <text x="3" y="12" font-family="system-ui, sans-serif" font-size="9" fill="#A85B6B">#FF7F1D1D</text>
  </g>
  <g>
    <rect x="0" y="1890" width="1050" height="210" fill="none" fill-opacity="0" stroke="#3B72A8" stroke-width="1" stroke-opacity="0.5"/>
  </g>
  <g>
    <rect x="0" y="1890" width="1050" height="210" fill="#713F12" fill-opacity="1" stroke="#A85B6B" stroke-width="1.5" stroke-opacity="1"/>
    <text x="3" y="1902" font-family="system-ui, sans-serif" font-size="9" fill="#A85B6B">#FF713F12</text>
  </g>
  <g>
    <rect x="882" y="1722" width="126" height="126" fill="none" fill-opacity="0" stroke="#3B72A8" stroke-width="1" stroke-opacity="0.5"/>
  </g>
  <g>
    <path d="M945.5,1733 H945.5 A52.5,52.5 0 0 1 998,1785.5 V1785.5 A52.5,52.5 0 0 1 945.5,1838 H945.5 A52.5,52.5 0 0 1 893,1785.5 V1785.5 A52.5,52.5 0 0 1 945.5,1733 Z" fill="none" fill-opacity="0" stroke="#A85B6B" stroke-width="1.5" stroke-opacity="1"/>
  </g>
  <g>
    <rect x="914" y="1754" width="63" height="63" fill="none" fill-opacity="0" stroke="#4F8A4A" stroke-width="1" stroke-opacity="0.5"/>
  </g>
</svg>
