<svg xmlns="http://www.w3.org/2000/svg" viewBox="0 0 735 840" width="735" height="840" role="img" aria-label="text-field-outlined-email-error layout wireframe">
  <title>text-field-outlined-email-error — layout wireframe (slots + tokens)</title>
  <rect width="735" height="840" fill="#ffffff"/>
  <g>
    <rect x="0" y="0" width="735" height="840" fill="none" fill-opacity="0" stroke="#5B6470" stroke-width="1" stroke-opacity="0.5"/>
  </g>
  <g>
    <rect x="0" y="0" width="735" height="840" fill="none" fill-opacity="0" stroke="#2E7D6B" stroke-width="1" stroke-opacity="0.5"/>
  </g>
  <g>
    <rect x="0" y="0" width="735" height="840" fill="none" fill-opacity="0" stroke="#8E6BA8" stroke-width="1" stroke-opacity="0.5"/>
  </g>
  <g>
    <rect x="0" y="0" width="735" height="210" fill="#FCF8F8" fill-opacity="1" stroke="#B0813B" stroke-width="1.5" stroke-opacity="1"/>
    <text x="3" y="12" font-family="system-ui, sans-serif" font-size="9" fill="#B0813B">#FFFCF8F8</text>
  </g>
  <g>
    <rect x="0" y="0" width="735" height="210" fill="none" fill-opacity="0" stroke="#3B72A8" stroke-width="1" stroke-opacity="0.5"/>
  </g>
  <g>
    <rect x="0" y="0" width="105" height="63" fill="#5F303D" fill-opacity="1" stroke="#A85B6B" stroke-width="1.5" stroke-opacity="1"/>
    <text x="3" y="12" font-family="system-ui, sans-serif" font-size="9" fill="#A85B6B">#FF5F303D</text>
  </g>
  <g>
    <rect x="11" y="0" width="83" height="63" fill="none" fill-opacity="0" stroke="#4F8A4A" stroke-width="1" stroke-opacity="0.5"/>
  </g>
  <g>
    <rect x="0" y="63" width="735" height="147" fill="none" fill-opacity="0" stroke="#A85B6B" stroke-width="1" stroke-opacity="0.5"/>
  </g>
  <g>
    <rect x="0" y="63" width="735" height="147" fill="none" fill-opacity="0" stroke="#4F8A4A" stroke-width="1" stroke-opacity="0.5"/>
  </g>
  <g>
    <rect x="0" y="63" width="735" height="147" fill="none" fill-opacity="0" stroke="#7A7A33" stroke-width="1" stroke-opacity="0.5"/>
  </g>
  <g>
    <rect x="0" y="63" width="735" height="147" fill="none" fill-opacity="0" stroke="#5B6470" stroke-width="1" stroke-opacity="0.5"/>
  </g>
  <g>
    <path d="M10.5,63 H724.5 A10.5,10.5 0 0 1 735,73.5 V199.5 A10.5,10.5 0 0 1 724.5,210 H10.5 A10.5,10.5 0 0 1 0,199.5 V73.5 A10.5,10.5 0 0 1 10.5,63 Z" fill="none" fill-opacity="0" stroke="#7F1D1D" stroke-width="1.5" stroke-opacity="1"/>
    <text x="3" y="75" font-family="system-ui, sans-serif" font-size="9" fill="#7F1D1D">◻ #FF7F1D1D</text>
  </g>
  <g>
    <rect x="42" y="105" width="651" height="63" fill="none" fill-opacity="0" stroke="#5B6470" stroke-width="1" stroke-opacity="0.5"/>
  </g>
  <g>
    <rect x="42" y="105" width="651" height="63" fill="none" fill-opacity="0" stroke="#2E7D6B" stroke-width="1" stroke-opacity="0.5"/>
  </g>
  <g>
    <rect x="42" y="105" width="651" height="63" fill="none" fill-opacity="0" stroke="#8E6BA8" stroke-width="1" stroke-opacity="0.5"/>
  </g>
  <g>
    <rect x="0" y="210" width="735" height="210" fill="#131314" fill-opacity="1" stroke="#B0813B" stroke-width="1.5" stroke-opacity="1"/>
    <text x="3" y="222" font-family="system-ui, sans-serif" font-size="9" fill="#B0813B">#FF131314</text>
  </g>
  <g>
    <rect x="0" y="210" width="735" height="210" fill="none" fill-opacity="0" stroke="#3B72A8" stroke-width="1" stroke-opacity="0.5"/>
  </g>
  <g>
    <rect x="0" y="210" width="102" height="63" fill="#F1E7FF" fill-opacity="1" stroke="#A85B6B" stroke-width="1.5" stroke-opacity="1"/>
    <text x="3" y="222" font-family="system-ui, sans-serif" font-size="9" fill="#A85B6B">#FFF1E7FF</text>
  </g>
  <g>
    <rect x="11" y="210" width="80" height="63" fill="none" fill-opacity="0" stroke="#4F8A4A" stroke-width="1" stroke-opacity="0.5"/>
  </g>
  <g>
    <rect x="0" y="273" width="735" height="147" fill="none" fill-opacity="0" stroke="#A85B6B" stroke-width="1" stroke-opacity="0.5"/>
  </g>
  <g>
    <rect x="0" y="273" width="735" height="147" fill="none" fill-opacity="0" stroke="#4F8A4A" stroke-width="1" stroke-opacity="0.5"/>
  </g>
  <g>
    <rect x="0" y="273" width="735" height="147" fill="none" fill-opacity="0" stroke="#7A7A33" stroke-width="1" stroke-opacity="0.5"/>
  </g>
  <g>
    <rect x="0" y="273" width="735" height="147" fill="none" fill-opacity="0" stroke="#5B6470" stroke-width="1" stroke-opacity="0.5"/>
  </g>
  <g>
    <path d="M10.5,273 H724.5 A10.5,10.5 0 0 1 735,283.5 V409.5 A10.5,10.5 0 0 1 724.5,420 H10.5 A10.5,10.5 0 0 1 0,409.5 V283.5 A10.5,10.5 0 0 1 10.5,273 Z" fill="none" fill-opacity="0" stroke="#FCA5A5" stroke-width="1.5" stroke-opacity="1"/>
    <text x="3" y="285" font-family="system-ui, sans-serif" font-size="9" fill="#FCA5A5">◻ #FFFCA5A5</text>
  </g>
  <g>
    <rect x="42" y="315" width="651" height="63" fill="none" fill-opacity="0" stroke="#5B6470" stroke-width="1" stroke-opacity="0.5"/>
  </g>
  <g>
    <rect x="42" y="315" width="651" height="63" fill="none" fill-opacity="0" stroke="#2E7D6B" stroke-width="1" stroke-opacity="0.5"/>
  </g>
  <g>
    <rect x="42" y="315" width="651" height="63" fill="none" fill-opacity="0" stroke="#8E6BA8" stroke-width="1" stroke-opacity="0.5"/>
  </g>
  <g>
    <rect x="0" y="420" width="735" height="210" fill="#FCF8F8" fill-opacity="1" stroke="#B0813B" stroke-width="1.5" stroke-opacity="1"/>
    <text x="3" y="432" font-family="system-ui, sans-serif" font-size="9" fill="#B0813B">#FFFCF8F8</text>
  </g>
  <g>
    <rect x="0" y="420" width="735" height="210" fill="none" fill-opacity="0" stroke="#3B72A8" stroke-width="1" stroke-opacity="0.5"/>
  </g>
  <g>
    <rect x="0" y="420" width="160" height="63" fill="#004F9B" fill-opacity="1" stroke="#A85B6B" stroke-width="1.5" stroke-opacity="1"/>
    <text x="3" y="432" font-family="system-ui, sans-serif" font-size="9" fill="#A85B6B">#FF004F9B</text>
  </g>
  <g>
    <rect x="11" y="420" width="138" height="63" fill="none" fill-opacity="0" stroke="#4F8A4A" stroke-width="1" stroke-opacity="0.5"/>
  </g>
  <g>
    <rect x="0" y="483" width="735" height="147" fill="none" fill-opacity="0" stroke="#A85B6B" stroke-width="1" stroke-opacity="0.5"/>
  </g>
  <g>
    <rect x="0" y="483" width="735" height="147" fill="none" fill-opacity="0" stroke="#4F8A4A" stroke-width="1" stroke-opacity="0.5"/>
  </g>
  <g>
    <rect x="0" y="483" width="735" height="147" fill="none" fill-opacity="0" stroke="#7A7A33" stroke-width="1" stroke-opacity="0.5"/>
  </g>
  <g>
    <rect x="0" y="483" width="735" height="147" fill="none" fill-opacity="0" stroke="#5B6470" stroke-width="1" stroke-opacity="0.5"/>
  </g>
  <g>
    <path d="M10.5,483 H724.5 A10.5,10.5 0 0 1 735,493.5 V619.5 A10.5,10.5 0 0 1 724.5,630 H10.5 A10.5,10.5 0 0 1 0,619.5 V493.5 A10.5,10.5 0 0 1 10.5,483 Z" fill="none" fill-opacity="0" stroke="#7F1D1D" stroke-width="1.5" stroke-opacity="1"/>
    <text x="3" y="495" font-family="system-ui, sans-serif" font-size="9" fill="#7F1D1D">◻ #FF7F1D1D</text>
  </g>
  <g>
    <rect x="42" y="525" width="651" height="63" fill="none" fill-opacity="0" stroke="#5B6470" stroke-width="1" stroke-opacity="0.5"/>
  </g>
  <g>
    <rect x="42" y="525" width="651" height="63" fill="none" fill-opacity="0" stroke="#2E7D6B" stroke-width="1" stroke-opacity="0.5"/>
  </g>
  <g>
    <rect x="42" y="525" width="651" height="63" fill="none" fill-opacity="0" stroke="#8E6BA8" stroke-width="1" stroke-opacity="0.5"/>
  </g>
  <g>
    <rect x="0" y="630" width="735" height="210" fill="#131314" fill-opacity="1" stroke="#B0813B" stroke-width="1.5" stroke-opacity="1"/>
    <text x="3" y="642" font-family="system-ui, sans-serif" font-size="9" fill="#B0813B">#FF131314</text>
  </g>
  <g>
    <rect x="0" y="630" width="735" height="210" fill="none" fill-opacity="0" stroke="#3B72A8" stroke-width="1" stroke-opacity="0.5"/>
  </g>
  <g>
    <rect x="0" y="630" width="156" height="63" fill="#BEE6FF" fill-opacity="1" stroke="#A85B6B" stroke-width="1.5" stroke-opacity="1"/>
    <text x="3" y="642" font-family="system-ui, sans-serif" font-size="9" fill="#A85B6B">#FFBEE6FF</text>
  </g>
  <g>
    <rect x="11" y="630" width="134" height="63" fill="none" fill-opacity="0" stroke="#4F8A4A" stroke-width="1" stroke-opacity="0.5"/>
  </g>
  <g>
    <rect x="0" y="693" width="735" height="147" fill="none" fill-opacity="0" stroke="#A85B6B" stroke-width="1" stroke-opacity="0.5"/>
  </g>
  <g>
    <rect x="0" y="693" width="735" height="147" fill="none" fill-opacity="0" stroke="#4F8A4A" stroke-width="1" stroke-opacity="0.5"/>
  </g>
  <g>
    <rect x="0" y="693" width="735" height="147" fill="none" fill-opacity="0" stroke="#7A7A33" stroke-width="1" stroke-opacity="0.5"/>
  </g>
  <g>
    <rect x="0" y="693" width="735" height="147" fill="none" fill-opacity="0" stroke="#5B6470" stroke-width="1" stroke-opacity="0.5"/>
  </g>
  <g>
    <path d="M10.5,693 H724.5 A10.5,10.5 0 0 1 735,703.5 V829.5 A10.5,10.5 0 0 1 724.5,840 H10.5 A10.5,10.5 0 0 1 0,829.5 V703.5 A10.5,10.5 0 0 1 10.5,693 Z" fill="none" fill-opacity="0" stroke="#FCA5A5" stroke-width="1.5" stroke-opacity="1"/>
    <text x="3" y="705" font-family="system-ui, sans-serif" font-size="9" fill="#FCA5A5">◻ #FFFCA5A5</text>
  </g>
  <g>
    <rect x="42" y="735" width="651" height="63" fill="none" fill-opacity="0" stroke="#5B6470" stroke-width="1" stroke-opacity="0.5"/>
  </g>
  <g>
    <rect x="42" y="735" width="651" height="63" fill="none" fill-opacity="0" stroke="#2E7D6B" stroke-width="1" stroke-opacity="0.5"/>
  </g>
  <g>
    <rect x="42" y="735" width="651" height="63" fill="none" fill-opacity="0" stroke="#8E6BA8" stroke-width="1" stroke-opacity="0.5"/>
  </g>
</svg>
